<svg version="1" xmlns="http://www.w3.org/2000/svg" width="1589.333" height="1589.333" viewBox="0 0 1192.000000 1192.000000"><path d="M762.9 122.4c-.2.2-4.2.7-8.9 1-32.8 2.7-72.3 12.1-100 23.9-51.5 22-86.6 57.7-101.5 103-3.4 10.7-6.5 26.2-6.5 33.2v4.1l-13.2-1.4c-17.7-1.8-54.3-1.1-64.8 1.3-4.1.9-12.4 3.3-18.5 5.3l-11 3.7-9.2-18.5c-9.2-18.6-18.1-33.2-29.5-48.3-8.3-11-30.4-32.8-40.5-40-16.4-11.7-38.1-21.1-56.8-24.8-4.4-.9-13.8-1.4-25.5-1.4-19.3 0-28.6 1.4-45.5 6.6-5.4 1.6-6.2 2.2-5.8 3.9.3 1.1.8 2.2 1.2 2.4.3.2 4.7-.7 9.6-2 28-7.5 53.9-7.7 78.5-.7 32.4 9.3 66.4 36.9 90.7 73.8 7.9 12 15.4 25.2 20.9 37.1 7.2 15.4 7.2 13.9.7 16.8l-5.5 2.6-5.7-4.8C383.2 271.1 345.3 255 312 255c-17.9 0-35 4.3-51.4 12.8-4.8 2.6-9.9 5.9-11.2 7.5-7.2 8.5-1.8 16.1 12.2 17.4 8.1.7 11.8 2.5 13.9 6.9 2.1 4.5 1.9 14.5-.5 23.2-1.1 3.9-2 8.8-2 10.8 0 10 10.4 16.5 31.7 20 13.1 2.1 16.4 4 24.3 14.6 9 12.1 13.5 16.4 20.7 20 5.6 2.7 6.9 3 13.5 2.6 4-.3 8.1-.8 9.1-1.2 2.3-1.1 2.2.4-.9 11-6.6 23.2-20.5 48.8-46.8 86.8-5.3 7.6-10.1 15.7-10.7 17.9-1.4 5.4-.3 15.2 2.6 24 10.8 31.9 50.7 60.3 110.4 78.6 16.7 5.1 31.5 7.8 50.1 9.1 8 .5 14.8 1 15.2 1 .4 0-1.5 2.3-4.2 5.1-18.4 19.2-31.4 75.3-36 155.7-.9 15.7-1.2 17.6-3.4 21-1.4 2-2.8 4.9-3.1 6.3l-.6 2.5-6.7-1.4c-8-1.6-14.3-.9-17.7 2.1-2.1 1.8-2.7 3.6-3.5 10.4-2 15.9 1.8 35.9 11.1 58.5l2.7 6.6-2.5 2.4c-3.5 3.2-8.9 11.6-11.3 17.7l-2 5.1h29.5l8.2 11.7c12.3 17.6 14.6 20 22.6 22.9 7.3 2.6 24.2 4.9 29.2 4 2.7-.5 3.7 0 8.5 5 25.4 26 65.8 46.2 110.8 55.4 30.7 6.4 34.9 7.1 48.1 8 53.1 3.5 115.2-13.1 173.1-46.3 31.5-18 55.2-36.1 72.2-55.2 16.6-18.6 28.7-38.9 35.8-60.4 6.5-19.5 7.5-26 7.4-48.1 0-17.7-.3-20.4-2.6-29.1-8.5-31.4-23.9-49.4-44.4-51.5l-6-.6-2.8-8.2c-24.2-69.2-64.9-127.7-119.8-171.9-3.6-2.8-11.4-9.7-17.4-15.1-12.2-11.1-21.8-18.5-31.4-24.4-6.2-3.8-6.5-4.1-6.2-7.5.2-1.9-.3-4.8-1.1-6.4-1.6-3.1-13.6-14.9-18-17.8-2.4-1.6-2.6-2-1.3-3.4 2.7-3.2 5.6-10.1 5.6-13.6 0-5-3-7.7-16.5-15.3-6-3.4-12-7-13.1-7.9-1.2-1-4.5-7.2-7.4-13.8-2.9-6.6-7.2-15.9-9.6-20.7-2.4-4.8-4.4-9.1-4.4-9.5 0-.5 2.1-1.8 4.8-3 10-4.7 16.2-12.5 17.7-22.4.6-4 1.1-4.7 3.9-5.7 1.8-.7 3.7-1.2 4.2-1.2s4.3 3.3 8.4 7.3c17.7 17 39.1 21.4 57.8 11.8 4.3-2.2 4.8-4.1 1.2-4.1-6.1 0-7.8-18-3.9-41.7 2.5-15.7 3-34.4 1.1-41.1-.7-2.4-2.8-6-4.6-8l-3.4-3.6-16.8.2c-20 .3-25.3-.7-35.1-6.6-9.5-5.7-18.1-8.4-28.8-8.9-7.8-.5-9.9-.2-16.3 2-13.8 4.8-28.2 14.9-45.9 32.2-5.3 5.2-9.8 9.5-9.8 9.5-.1 0-3.9-2.2-8.4-5-9.8-5.8-20.5-10.1-31.4-12.5l-7.7-1.7.6-6.2c5.1-51.6 38.4-96.6 91.2-123 31.5-15.8 74.8-26.9 117.7-30.2 5-.4 9.7-.8 10.5-1 .8-.1 2.1-.3 2.8-.3.6-.1 1.2-1.2 1.2-2.6 0-2.4-.3-2.5-5.8-2.5-3.2 0-6.1.2-6.3.4z"/></svg>